<svg width="58" height="53" viewBox="0 0 58 53" fill="none" xmlns="http://www.w3.org/2000/svg">
<path d="M29.392 52.0018C40.638 52.1578 46.912 47.6208 50.4 42.8128C54.003 37.8468 55.164 31.5298 54.047 25.4898C50.004 3.64484 29.392 3.82984 29.392 3.82984C29.392 3.82984 8.781 3.64484 4.738 25.4908C3.62 31.5308 4.782 37.8468 8.385 42.8138C11.872 47.6208 18.146 52.1578 29.392 52.0018Z" fill="#FDC794"/>
<path d="M4.499 27.1278C4.046 26.6988 3.514 26.4408 2.94 26.4408C1.316 26.4408 0 28.4218 0 30.8648C0 33.3078 1.316 35.2888 2.939 35.2888C3.626 35.2888 4.25 34.9188 4.75 34.3248C4.297 31.9728 4.218 29.5408 4.499 27.1278Z" fill="#F9A671"/>
<path d="M57.823 23.3008C57.26 20.9238 55.523 19.3018 53.944 19.6788C53.453 19.7958 53.046 20.1088 52.719 20.5338C53.257 22.0488 53.713 23.6878 54.047 25.4908C54.202 26.3278 54.308 27.1698 54.375 28.0128C54.895 28.2968 55.447 28.4148 55.983 28.2868C57.562 27.9098 58.386 25.6778 57.823 23.3008Z" fill="#F9A671"/>
<path d="M13.9 14.0018C13.644 14.0018 13.388 13.9038 13.193 13.7088L8.193 8.70884C7.802 8.31784 7.802 7.68584 8.193 7.29484C8.584 6.90384 9.216 6.90384 9.607 7.29484L14.607 12.2948C14.998 12.6858 14.998 13.3178 14.607 13.7088C14.412 13.9038 14.156 14.0018 13.9 14.0018Z" fill="#5E5F62"/>
<path d="M16.901 11.0018C16.534 11.0018 16.181 10.7998 16.005 10.4488L13.005 4.44884C12.758 3.95484 12.958 3.35384 13.452 3.10684C13.947 2.86084 14.546 3.05984 14.794 3.55384L17.794 9.55384C18.041 10.0478 17.841 10.6488 17.347 10.8958C17.204 10.9678 17.052 11.0018 16.901 11.0018Z" fill="#5E5F62"/>
<path d="M20.9 9.00184C20.481 9.00184 20.091 8.73684 19.952 8.31784L17.952 2.31784C17.777 1.79384 18.06 1.22684 18.584 1.05284C19.111 0.87584 19.675 1.16084 19.849 1.68484L21.849 7.68484C22.024 8.20884 21.741 8.77584 21.217 8.94984C21.111 8.98484 21.005 9.00184 20.9 9.00184Z" fill="#5E5F62"/>
<path d="M25.899 8.00184C25.419 8.00184 24.995 7.65484 24.914 7.16584L23.914 1.16584C23.823 0.62184 24.191 0.10584 24.736 0.0158403C25.279 -0.0831597 25.797 0.29284 25.886 0.83784L26.886 6.83784C26.977 7.38184 26.609 7.89784 26.064 7.98784C26.009 7.99784 25.954 8.00184 25.899 8.00184Z" fill="#5E5F62"/>
<path d="M29.9 8.00184C29.347 8.00184 28.9 7.55484 28.9 7.00184V1.00184C28.9 0.44884 29.347 0.00184035 29.9 0.00184035C30.453 0.00184035 30.9 0.44884 30.9 1.00184V7.00184C30.9 7.55484 30.453 8.00184 29.9 8.00184Z" fill="#5E5F62"/>
<path d="M33.9 8.00184C33.796 8.00184 33.689 7.98484 33.584 7.94984C33.061 7.77584 32.777 7.20984 32.952 6.68484L34.952 0.68484C35.127 0.16184 35.688 -0.12416 36.217 0.0528403C36.74 0.22684 37.024 0.79284 36.849 1.31784L34.849 7.31784C34.709 7.73684 34.319 8.00184 33.9 8.00184Z" fill="#5E5F62"/>
<path d="M37.9 9.00184C37.796 9.00184 37.689 8.98484 37.584 8.94984C37.061 8.77584 36.777 8.20984 36.952 7.68484L38.952 1.68484C39.127 1.16184 39.689 0.87584 40.217 1.05284C40.74 1.22684 41.024 1.79284 40.849 2.31784L38.849 8.31784C38.709 8.73684 38.319 9.00184 37.9 9.00184Z" fill="#5E5F62"/>
<path d="M40.899 11.0018C40.749 11.0018 40.596 10.9678 40.453 10.8968C39.959 10.6498 39.759 10.0488 40.006 9.55484L43.006 3.55484C43.254 3.06084 43.854 2.86184 44.348 3.10784C44.842 3.35484 45.042 3.95584 44.795 4.44984L41.795 10.4498C41.619 10.7998 41.267 11.0018 40.899 11.0018Z" fill="#5E5F62"/>
<path d="M20 29.0018C23.3137 29.0018 26 25.644 26 21.5018C26 17.3597 23.3137 14.0018 20 14.0018C16.6863 14.0018 14 17.3597 14 21.5018C14 25.644 16.6863 29.0018 20 29.0018Z" fill="white"/>
<path d="M20 26.0018C21.6569 26.0018 23 23.9871 23 21.5018C23 19.0166 21.6569 17.0018 20 17.0018C18.3431 17.0018 17 19.0166 17 21.5018C17 23.9871 18.3431 26.0018 20 26.0018Z" fill="#7F5B53"/>
<path d="M38 29.0018C41.3137 29.0018 44 25.644 44 21.5018C44 17.3597 41.3137 14.0018 38 14.0018C34.6863 14.0018 32 17.3597 32 21.5018C32 25.644 34.6863 29.0018 38 29.0018Z" fill="white"/>
<path d="M38 26.0018C39.6569 26.0018 41 23.9871 41 21.5018C41 19.0166 39.6569 17.0018 38 17.0018C36.3431 17.0018 35 19.0166 35 21.5018C35 23.9871 36.3431 26.0018 38 26.0018Z" fill="#7F5B53"/>
<path d="M16 36.0018V36.0328C16 39.8538 18.109 43.4158 21.543 45.0918C23.682 46.1358 26.235 46.7768 28.985 46.7768C31.732 46.7768 34.289 46.1368 36.434 45.0948C39.884 43.4188 42 39.8378 41.989 36.0018H16Z" fill="#802D40"/>
<path d="M38.029 44.0878L38 44.0018C38 41.5398 33.716 40.4598 28.996 40.4598C24.276 40.4598 20 41.5388 20 44.0018L19.986 44.1128C20.472 44.4798 20.983 44.8188 21.543 45.0918C23.682 46.1358 26.235 46.7768 28.985 46.7768C31.732 46.7768 34.289 46.1368 36.434 45.0948C37.009 44.8148 37.532 44.4658 38.029 44.0878Z" fill="#E64C3C"/>
</svg>
