<svg width="300" height="300" viewBox="0 0 300 300" fill="none" xmlns="http://www.w3.org/2000/svg">
<rect width="300" height="300" fill="white"/>
<path d="M99.0877 128.52C85.5046 117.08 78 101.827 78 85.64C78 69.4533 85.5043 54.2 99.0877 42.76C112.702 31.32 130.782 25 150 25C169.219 25 187.298 31.32 200.913 42.76C214.496 54.2 222 69.4533 222 85.64C222 101.827 214.496 117.053 200.913 128.52C192.111 135.933 181.441 141.187 169.789 143.96V194.76V237.88V258.333C169.789 267.533 160.924 275 150 275C139.077 275 130.211 267.533 130.211 258.333V254.547H118.877C107.953 254.547 99.0877 247.08 99.0877 237.88C99.0877 228.68 107.953 221.213 118.877 221.213H130.211V211.427H118.877C107.953 211.427 99.0877 203.96 99.0877 194.76C99.0877 185.56 107.953 178.093 118.877 178.093H130.211V143.96C118.56 141.187 107.889 135.933 99.0877 128.52ZM182.423 85.64C182.423 70.5733 167.89 58.3333 150 58.3333C132.111 58.3333 117.578 70.5733 117.578 85.64C117.578 100.707 132.111 112.947 150 112.947C167.889 112.947 182.423 100.68 182.423 85.64Z" fill="black"/>
</svg>
